<svg width="100" height="100" viewBox="0 0 100 100" xmlns="http://www.w3.org/2000/svg">
  <g fill="#4A90E2">
    <!-- Location Pin -->
    <path d="M50 0C27.9 0 10 17.9 10 40c0 22 40 60 40 60s40-38 40-60C90 17.9 72.1 0 50 0zm0 55c-8.3 0-15-6.7-15-15s6.7-15 15-15 15 6.7 15 15-6.7 15-15 15z"/>
    <!-- Ticket Stub -->
    <path fill="#FFFFFF" d="M50 22c-9.94 0-18 8.06-18 18s8.06 18 18 18 18-8.06 18-18-8.06-18-18-18zm0 30c-6.63 0-12-5.37-12-12s5.37-12 12-12 12 5.37 12 12-5.37 12-12 12z"/>
    <path fill="#4A90E2" d="M50 32.5c-4.14 0-7.5 3.36-7.5 7.5s3.36 7.5 7.5 7.5 7.5-3.36 7.5-7.5-3.36-7.5-7.5-7.5z"/>
  </g>
</svg>